<svg aria-hidden="true" style="position: absolute; width: 0; height: 0; overflow: hidden;" version="1.1" xmlns="http://www.w3.org/2000/svg" xmlns:xlink="http://www.w3.org/1999/xlink">
<defs>
<symbol id="icon-arrow-left" viewBox="0 0 32 32">
<path d="M1 16l15 15v-9h16v-12h-16v-9z"></path>
</symbol>
<symbol id="icon-bone" viewBox="0 0 32 32">
<path d="M30.847 5.040c-0.741-0.741-1.763-1.143-2.798-1.152-0.013-1.009-0.412-1.996-1.153-2.737-1.535-1.535-4.033-1.535-5.568 0-1.307 1.307-1.5 3.312-0.582 4.827l-14.706 14.767c-1.485-0.898-3.543-0.759-4.886 0.583-1.535 1.535-1.535 4.033 0 5.568 0.741 0.741 1.764 1.143 2.799 1.153 0.009 1.035 0.411 2.058 1.153 2.799 1.535 1.535 4.033 1.535 5.568 0 1.457-1.457 1.512-3.778 0.29-5.305l14.581-14.642c1.54 1.23 3.857 1.152 5.302-0.293 1.535-1.535 1.535-4.033 0-5.568zM29.521 9.283c-0.803 0.803-2.17 0.809-2.979 0-0.107-0.107-0.16-0.18-0.24-0.286-0.34-0.447-0.985-0.498-1.39-0.115-0.018 0.017-15.944 16.004-16 16.071-0.351 0.415-0.274 1.051 0.173 1.368 1.057 0.751 1.155 2.31 0.263 3.202-0.804 0.804-2.113 0.804-2.917 0-0.573-0.573-0.763-1.508-0.462-2.274 0.297-0.762-0.46-1.511-1.215-1.215-0.766 0.301-1.701 0.11-2.274-0.462-1.272-1.272-0.421-3.521 1.49-3.521 0.571 0 1.1 0.215 1.49 0.604 0.361 0.361 0.954 0.372 1.327-0.001 16.996-17.068 15.946-15.974 16.052-16.2 0.172-0.37 0.081-0.792-0.186-1.059-0.804-0.804-0.804-2.113 0-2.917s2.113-0.804 2.917 0c0.58 0.58 0.762 1.448 0.462 2.212-0.082 0.208-0.088 0.46 0 0.685 0.188 0.48 0.736 0.718 1.215 0.53 0.766-0.301 1.701-0.11 2.274 0.462 0.804 0.804 0.804 2.113 0 2.917z"></path>
<path d="M10.35 11.572c0.366 0.366 0.96 0.366 1.326 0s0.366-0.96 0-1.326l-3.182-3.182c-0.366-0.366-0.96-0.366-1.326 0s-0.366 0.96 0 1.326z"></path>
<path d="M3.5 14.94h4.5c0.518 0 0.938-0.42 0.938-0.938s-0.42-0.938-0.938-0.938h-4.5c-0.518 0-0.938 0.42-0.938 0.938s0.42 0.938 0.938 0.938z"></path>
<path d="M14.107 8.833c0.518 0 0.938-0.42 0.938-0.938v-4.5c0-0.518-0.42-0.938-0.938-0.938s-0.938 0.42-0.938 0.938v4.5c0 0.518 0.42 0.938 0.938 0.938z"></path>
<path d="M21.756 20.433c-0.366-0.366-0.96-0.366-1.326 0s-0.366 0.96 0 1.326l3.182 3.182c0.183 0.183 0.423 0.275 0.663 0.275 0.828 0 1.255-1.008 0.663-1.6z"></path>
<path d="M28.606 17.065h-4.5c-0.518 0-0.938 0.42-0.938 0.938s0.42 0.938 0.938 0.938h4.5c0.518 0 0.938-0.42 0.938-0.938s-0.42-0.938-0.938-0.938z"></path>
<path d="M18 23.171c-0.518 0-0.938 0.42-0.938 0.938v4.5c0 0.518 0.42 0.938 0.938 0.938s0.938-0.42 0.938-0.938v-4.5c0-0.518-0.42-0.938-0.938-0.938z"></path>
</symbol>
<symbol id="icon-bookmark" viewBox="0 0 32 32">
<path d="M6 0v32l10-10 10 10v-32z"></path>
</symbol>
<symbol id="icon-bubble2" viewBox="0 0 32 32">
<path d="M16 6c-1.717 0-3.375 0.271-4.928 0.804-1.46 0.502-2.76 1.211-3.863 2.108-2.069 1.681-3.209 3.843-3.209 6.088 0 1.259 0.35 2.481 1.039 3.63 0.711 1.185 1.781 2.268 3.093 3.133 0.949 0.625 1.587 1.623 1.755 2.747 0.056 0.375 0.091 0.753 0.105 1.129 0.233-0.194 0.461-0.401 0.684-0.624 0.755-0.755 1.774-1.172 2.828-1.172 0.168 0 0.336 0.011 0.505 0.032 0.655 0.083 1.325 0.126 1.99 0.126 1.717 0 3.375-0.271 4.928-0.804 1.46-0.502 2.76-1.211 3.863-2.108 2.069-1.681 3.209-3.843 3.209-6.088s-1.14-4.407-3.209-6.088c-1.104-0.897-2.404-1.606-3.863-2.108-1.553-0.534-3.211-0.804-4.928-0.804zM16 2v0c8.837 0 16 5.82 16 13s-7.163 13-16 13c-0.849 0-1.682-0.054-2.495-0.158-3.437 3.437-7.539 4.053-11.505 4.144v-0.841c2.142-1.049 4-2.961 4-5.145 0-0.305-0.024-0.604-0.068-0.897-3.619-2.383-5.932-6.024-5.932-10.103 0-7.18 7.163-13 16-13z"></path>
</symbol>
<symbol id="icon-bx-search" viewBox="0 0 32 32">
<path fill="#626262" style="fill: var(--color1, #626262)" d="M13.333 24c2.473-0.001 4.749-0.848 6.552-2.268l-0.023 0.017 5.861 5.861 1.885-1.885-5.861-5.861c1.404-1.781 2.251-4.057 2.252-6.531v0c0-5.881-4.785-10.667-10.667-10.667s-10.667 4.785-10.667 10.667 4.785 10.667 10.667 10.667zM13.333 5.333c4.412 0 8 3.588 8 8s-3.588 8-8 8-8-3.588-8-8 3.588-8 8-8z"></path>
</symbol>
<symbol id="icon-camera" viewBox="0 0 32 32">
<path d="M9.5 19c0 3.59 2.91 6.5 6.5 6.5s6.5-2.91 6.5-6.5-2.91-6.5-6.5-6.5-6.5 2.91-6.5 6.5zM30 8h-7c-0.5-2-1-4-3-4h-8c-2 0-2.5 2-3 4h-7c-1.1 0-2 0.9-2 2v18c0 1.1 0.9 2 2 2h28c1.1 0 2-0.9 2-2v-18c0-1.1-0.9-2-2-2zM16 27.875c-4.902 0-8.875-3.973-8.875-8.875s3.973-8.875 8.875-8.875c4.902 0 8.875 3.973 8.875 8.875s-3.973 8.875-8.875 8.875zM30 14h-4v-2h4v2z"></path>
</symbol>
<symbol id="icon-card-outline" viewBox="0 0 32 32">
<path stroke-width="2" stroke-miterlimit="4" stroke-linecap="round" stroke-linejoin="round" d="M6.5 6h19c1.933 0 3.5 1.567 3.5 3.5v13c0 1.933-1.567 3.5-3.5 3.5h-19c-1.933 0-3.5-1.567-3.5-3.5v-13c0-1.933 1.567-3.5 3.5-3.5z"></path>
<path stroke-width="3.75" stroke-miterlimit="4" stroke-linecap="butt" stroke-linejoin="round" d="M3 12h26"></path>
<path stroke-width="3.75" stroke-miterlimit="4" stroke-linecap="butt" stroke-linejoin="round" d="M8 18.75h3v1.25h-3v-1.25z"></path>
</symbol>
<symbol id="icon-cart" viewBox="0 0 32 32">
<path d="M12 29c0 1.657-1.343 3-3 3s-3-1.343-3-3c0-1.657 1.343-3 3-3s3 1.343 3 3z"></path>
<path d="M32 29c0 1.657-1.343 3-3 3s-3-1.343-3-3c0-1.657 1.343-3 3-3s3 1.343 3 3z"></path>
<path d="M32 16v-12h-24c0-1.105-0.895-2-2-2h-6v2h4l1.502 12.877c-0.915 0.733-1.502 1.859-1.502 3.123 0 2.209 1.791 4 4 4h24v-2h-24c-1.105 0-2-0.895-2-2 0-0.007 0-0.014 0-0.020l26-3.98z"></path>
</symbol>
<symbol id="icon-chat-right" viewBox="0 0 32 32">
<path fill="#626262" style="fill: var(--color1, #626262)" d="M4 2v0c-1.105 0-2 0.895-2 2v16c0 1.105 0.895 2 2 2h19.172c1.104 0 2.104 0.448 2.828 1.172l4 4v-23.172c0-1.105-0.895-2-2-2h-24zM28 0c2.209 0 4 1.791 4 4v0 25.586c0 0.552-0.448 1-1 1-0.277 0-0.527-0.112-0.708-0.294l-5.706-5.706c-0.362-0.362-0.862-0.586-1.414-0.586h-19.172c-2.209 0-4-1.791-4-4v0-16c0-2.209 1.791-4 4-4v0h24z"></path>
</symbol>
<symbol id="icon-clip" viewBox="0 0 32 32">
<path d="M20.807 10.22l-2.030-2.029-10.15 10.148c-1.682 1.681-1.682 4.408 0 6.089s4.408 1.681 6.090 0l12.18-12.178c2.804-2.802 2.804-7.346 0-10.148-2.802-2.803-7.347-2.803-10.149 0l-12.788 12.787c-0.009 0.009-0.019 0.018-0.027 0.026-3.909 3.909-3.909 10.245 0 14.153s10.246 3.908 14.156 0c0.009-0.009 0.016-0.018 0.026-0.027l0.001 0.001 8.729-8.728-2.031-2.029-8.729 8.727c-0.009 0.008-0.018 0.018-0.026 0.026-2.784 2.783-7.312 2.783-10.096 0s-2.783-7.31 0-10.093c0.010-0.009 0.019-0.018 0.028-0.026l-0.001-0.002 12.79-12.786c1.678-1.679 4.411-1.679 6.090 0s1.678 4.411 0 6.089l-12.18 12.178c-0.56 0.56-1.47 0.56-2.030 0s-0.559-1.47 0-2.029l10.15-10.149z"></path>
</symbol>
<symbol id="icon-cog" viewBox="0 0 32 32">
<path d="M29.181 19.070c-1.679-2.908-0.669-6.634 2.255-8.328l-3.145-5.447c-0.898 0.527-1.943 0.829-3.058 0.829-3.361 0-6.085-2.742-6.085-6.125h-6.289c0.008 1.044-0.252 2.103-0.811 3.070-1.679 2.908-5.411 3.897-8.339 2.211l-3.144 5.447c0.905 0.515 1.689 1.268 2.246 2.234 1.676 2.903 0.672 6.623-2.241 8.319l3.145 5.447c0.895-0.522 1.935-0.82 3.044-0.82 3.35 0 6.067 2.725 6.084 6.092h6.289c-0.003-1.034 0.259-2.080 0.811-3.038 1.676-2.903 5.399-3.894 8.325-2.219l3.145-5.447c-0.899-0.515-1.678-1.266-2.232-2.226zM16 22.479c-3.578 0-6.479-2.901-6.479-6.479s2.901-6.479 6.479-6.479c3.578 0 6.479 2.901 6.479 6.479s-2.901 6.479-6.479 6.479z"></path>
</symbol>
<symbol id="icon-connection" viewBox="0 0 40 32">
<path d="M20 18c3.308 0 6.308 1.346 8.481 3.519l-2.827 2.827c-1.449-1.449-3.449-2.346-5.654-2.346s-4.206 0.897-5.654 2.346l-2.827-2.827c2.173-2.173 5.173-3.519 8.481-3.519zM5.858 15.858c3.777-3.777 8.8-5.858 14.142-5.858s10.365 2.080 14.142 5.858l-2.828 2.828c-3.022-3.022-7.040-4.686-11.314-4.686s-8.292 1.664-11.314 4.686l-2.828-2.828zM30.899 4.201c3.334 1.41 6.329 3.429 8.899 6v0l-2.828 2.828c-4.533-4.533-10.56-7.029-16.971-7.029s-12.438 2.496-16.971 7.029l-2.828-2.828c2.571-2.571 5.565-4.589 8.899-6 3.453-1.461 7.12-2.201 10.899-2.201s7.446 0.741 10.899 2.201zM18 28c0-1.105 0.895-2 2-2s2 0.895 2 2c0 1.105-0.895 2-2 2s-2-0.895-2-2z"></path>
</symbol>
<symbol id="icon-document-outline" viewBox="0 0 32 32">
<path stroke-width="2" stroke-miterlimit="4" stroke-linecap="butt" stroke-linejoin="round" d="M26 13.828v12.172c0 1.657-1.343 3-3 3v0h-14c-1.657 0-3-1.343-3-3v0-20c0-1.657 1.343-3 3-3v0h6.172c0.552 0 1.052 0.224 1.414 0.586l8.829 8.829c0.362 0.362 0.586 0.862 0.586 1.414v0z"></path>
<path stroke-width="2" stroke-miterlimit="4" stroke-linecap="round" stroke-linejoin="round" d="M16 3.5v7.5c0 1.105 0.895 2 2 2v0h7.5"></path>
</symbol>
<symbol id="icon-email" viewBox="0 0 32 32">
<path d="M29.188 3.813h-26.375c-1.549 0-2.813 1.262-2.813 2.813v18.75c0 1.545 1.258 2.813 2.813 2.813h26.375c1.545 0 2.813-1.258 2.813-2.813v-18.75c0-1.545-1.258-2.813-2.813-2.813zM28.799 5.688l-12.739 12.74-12.85-12.74h25.589zM1.875 24.987v-17.982l9.030 8.953-9.030 9.030zM3.201 26.313l9.036-9.036 3.166 3.139c0.367 0.363 0.958 0.362 1.323-0.003l3.087-3.087 8.987 8.987h-25.598zM30.125 24.987l-8.987-8.987 8.987-8.987v17.973z"></path>
</symbol>
<symbol id="icon-eye" viewBox="0 0 32 32">
<path d="M16 6c-6.979 0-13.028 4.064-16 10 2.972 5.936 9.021 10 16 10s13.027-4.064 16-10c-2.972-5.936-9.021-10-16-10zM23.889 11.303c1.88 1.199 3.473 2.805 4.67 4.697-1.197 1.891-2.79 3.498-4.67 4.697-2.362 1.507-5.090 2.303-7.889 2.303s-5.527-0.796-7.889-2.303c-1.88-1.199-3.473-2.805-4.67-4.697 1.197-1.891 2.79-3.498 4.67-4.697 0.122-0.078 0.246-0.154 0.371-0.228-0.311 0.854-0.482 1.776-0.482 2.737 0 4.418 3.582 8 8 8s8-3.582 8-8c0-0.962-0.17-1.883-0.482-2.737 0.124 0.074 0.248 0.15 0.371 0.228v0zM16 13c0 1.657-1.343 3-3 3s-3-1.343-3-3 1.343-3 3-3 3 1.343 3 3z"></path>
</symbol>
<symbol id="icon-facebook2" viewBox="0 0 32 32">
<path d="M29 0h-26c-1.65 0-3 1.35-3 3v26c0 1.65 1.35 3 3 3h13v-14h-4v-4h4v-2c0-3.306 2.694-6 6-6h4v4h-4c-1.1 0-2 0.9-2 2v2h6l-1 4h-5v14h9c1.65 0 3-1.35 3-3v-26c0-1.65-1.35-3-3-3z"></path>
</symbol>
<symbol id="icon-fish-bone" viewBox="0 0 32 32">
<path d="M31.020 0.866c-1.085-1.018-3.238-0.945-4.853-0.705-2.218 0.33-4.712 1.175-7.025 2.378-0.36 0.187-0.558 0.584-0.492 0.984 0.315 1.91 1.337 3.926 2.888 5.603l-1.286 1.286-4.588-4.588c-0.366-0.366-0.96-0.366-1.326 0s-0.366 0.96 0 1.326l4.588 4.588-1.674 1.674-4.088-4.088c-0.366-0.366-0.96-0.366-1.326 0s-0.366 0.96 0 1.326l4.088 4.088-1.674 1.674-3.088-3.088c-0.366-0.366-0.96-0.366-1.326 0s-0.366 0.96 0 1.326l3.088 3.087-1.674 1.674-1.587-1.587c-0.366-0.366-0.96-0.366-1.326 0s-0.366 0.96 0 1.326l1.587 1.587-0.409 0.409c-0.953 0.211-4.451 0.711-8.395-0.078-0.578-0.116-1.121 0.327-1.121 0.919 0 2.912 1.297 5.438 4.128 5.873 0.436 2.832 2.964 4.128 5.873 4.128 0.591 0 1.036-0.541 0.919-1.122-0.789-3.944-0.289-7.443-0.078-8.395l0.409-0.409 1.587 1.587c0.183 0.183 0.423 0.275 0.663 0.275 0.828 0 1.255-1.008 0.663-1.601l-1.587-1.587 1.674-1.674 3.088 3.087c0.183 0.183 0.423 0.275 0.663 0.275 0.828 0 1.255-1.008 0.663-1.601l-3.088-3.087 1.674-1.674 4.088 4.088c0.183 0.183 0.423 0.275 0.663 0.275 0.828 0 1.255-1.008 0.663-1.601l-4.088-4.088 1.674-1.674 4.588 4.588c0.183 0.183 0.423 0.275 0.663 0.275 0.828 0 1.255-1.008 0.663-1.601l-4.588-4.588 1.332-1.332c1.648 1.32 3.689 2.267 5.993 2.515 0.413 0.044 0.808-0.189 0.967-0.575 0.933-2.266 1.619-4.542 1.932-6.409 0.423-2.521 0.167-4.18-0.783-5.071zM7.092 29.372c-0.777-0.531-1.154-1.31-1.154-2.382 0-0.518-0.42-0.938-0.938-0.938-1.072 0-1.852-0.377-2.382-1.154-0.318-0.466-0.542-1.078-0.655-1.781 2.249 0.328 4.656 0.346 6.867 0.044-0.301 2.202-0.284 4.61 0.044 6.867-0.703-0.114-1.315-0.337-1.781-0.656zM29.954 5.627c-0.26 1.549-0.803 3.419-1.546 5.327-3.957-0.74-6.945-4.027-7.763-7.070 1.945-0.939 3.981-1.597 5.799-1.867 2.090-0.311 3.069 0.006 3.294 0.217 0.328 0.308 0.557 1.361 0.217 3.393z"></path>
<path d="M25.422 4.804c-0.099-0.524-0.643-0.877-1.191-0.714-0.531 0.173-0.765 0.698-0.624 1.17 0.178 0.543 0.71 0.761 1.169 0.624 0.507-0.165 0.735-0.654 0.646-1.080z"></path>
</symbol>
<symbol id="icon-github" viewBox="0 0 32 32">
<path d="M16 0.395c-8.836 0-16 7.163-16 16 0 7.069 4.585 13.067 10.942 15.182 0.8 0.148 1.094-0.347 1.094-0.77 0-0.381-0.015-1.642-0.022-2.979-4.452 0.968-5.391-1.888-5.391-1.888-0.728-1.849-1.776-2.341-1.776-2.341-1.452-0.993 0.11-0.973 0.11-0.973 1.606 0.113 2.452 1.649 2.452 1.649 1.427 2.446 3.743 1.739 4.656 1.33 0.143-1.034 0.558-1.74 1.016-2.14-3.554-0.404-7.29-1.777-7.29-7.907 0-1.747 0.625-3.174 1.649-4.295-0.166-0.403-0.714-2.030 0.155-4.234 0 0 1.344-0.43 4.401 1.64 1.276-0.355 2.645-0.532 4.005-0.539 1.359 0.006 2.729 0.184 4.008 0.539 3.054-2.070 4.395-1.64 4.395-1.64 0.871 2.204 0.323 3.831 0.157 4.234 1.026 1.12 1.647 2.548 1.647 4.295 0 6.145-3.743 7.498-7.306 7.895 0.574 0.497 1.085 1.47 1.085 2.963 0 2.141-0.019 3.864-0.019 4.391 0 0.426 0.288 0.925 1.099 0.768 6.354-2.118 10.933-8.113 10.933-15.18 0-8.837-7.164-16-16-16z"></path>
</symbol>
<symbol id="icon-google2" viewBox="0 0 32 32">
<path d="M29 0h-26c-1.65 0-3 1.35-3 3v26c0 1.65 1.35 3 3 3h26c1.65 0 3-1.35 3-3v-26c0-1.65-1.35-3-3-3zM16.238 28c-6.631 0-12-5.369-12-12s5.369-12 12-12c3.238 0 5.95 1.181 8.037 3.138l-3.256 3.138c-0.894-0.856-2.45-1.85-4.781-1.85-4.1 0-7.438 3.394-7.438 7.575s3.344 7.575 7.438 7.575c4.75 0 6.531-3.413 6.806-5.175h-6.806v-4.113h11.331c0.1 0.6 0.188 1.2 0.188 1.988 0.006 6.856-4.588 11.725-11.519 11.725z"></path>
</symbol>
<symbol id="icon-guide-dog" viewBox="0 0 32 32">
<path fill="#626262" style="fill: var(--color1, #626262)" d="M12.742 7.988l3.762 3.762c0.011 0.011 0.021 0.022 0.033 0.033l0.030 0.030 0.003-0.003c0.112 0.091 0.253 0.148 0.409 0.148 0.36 0 0.651-0.292 0.651-0.651 0 0 0 0 0 0v0c0-0.235-0.125-0.438-0.311-0.553l-3.744-3.744c-0.119-0.137-0.293-0.223-0.487-0.223v0c-0.359 0-0.651 0.291-0.651 0.651v0c0 0.232 0.122 0.435 0.305 0.549z"></path>
<path fill="#626262" style="fill: var(--color1, #626262)" d="M16.979 21.033v-8.012h-8.608c-0.047 0-0.093 0.012-0.138 0.029l-3.509-2.026-0.003 0.005c-0.109-0.059-0.238-0.094-0.376-0.095v0c-0.001 0-0.002 0-0.003 0-0.454 0-0.822 0.368-0.822 0.822 0 0.29 0.15 0.545 0.377 0.691l0.003 0.002-0.006 0.011 3.556 2.053c-0.137 0.598-0.219 1.332-0.219 2.128 0 1.684 0.363 3.094 0.852 3.5l-2.004 3.472c-0.149 0.187-0.239 0.426-0.24 0.687v0c0 0.621 0.503 1.124 1.124 1.124v0c0.361-0.001 0.682-0.173 0.886-0.44l0.002-0.003 0.019 0.011 2.345-4.061 2.345 4.061 0.019-0.011c0.206 0.269 0.526 0.441 0.888 0.442v0c0.621 0 1.124-0.503 1.124-1.124v0c0-0.26-0.092-0.496-0.24-0.687l-1.514-2.622c0.789 0.045 1.647 0.070 2.544 0.070 0.551 0 1.086-0.010 1.6-0.028z"></path>
<path fill="#626262" style="fill: var(--color1, #626262)" d="M22.619 20.202c0.368-0.208 0.676-0.976 0.831-2.018l-5.191-5.191v7.26l-1.94 3.361c-0.149 0.187-0.239 0.426-0.24 0.687v0c0 0.621 0.503 1.124 1.124 1.124v0c0.361-0.001 0.682-0.173 0.886-0.44l0.002-0.003 0.019 0.011 2.345-4.061 2.345 4.061 0.019-0.011c0.206 0.269 0.526 0.441 0.888 0.442v0c0.621 0 1.124-0.503 1.124-1.124v0c0-0.26-0.092-0.496-0.24-0.687l-1.97-3.411z"></path>
<path fill="#626262" style="fill: var(--color1, #626262)" d="M28.479 13.336c0-0.266-0.131-0.499-0.33-0.645l-1.25-1.25v-1.301c0-0.489-0.281-0.908-0.688-1.117l-1.617-0.934-0.004 0.008c-0.129-0.078-0.281-0.135-0.443-0.16l-0.007-0.001-0.785-1.36-1.631 2.826-2.622 2.621 4.454 4.454c-0.004-0.35-0.024-0.69-0.058-1.026l0.004 0.047 0.879-0.879h3.16v-0.009l0.696-0.696-0.003-0.003c0.152-0.145 0.247-0.35 0.247-0.577v0z"></path>
</symbol>
<symbol id="icon-heart" viewBox="0 0 32 32">
<path d="M23.6 2c-3.363 0-6.258 2.736-7.599 5.594-1.342-2.858-4.237-5.594-7.601-5.594-4.637 0-8.4 3.764-8.4 8.401 0 9.433 9.516 11.906 16.001 21.232 6.13-9.268 15.999-12.1 15.999-21.232 0-4.637-3.763-8.401-8.4-8.401z"></path>
</symbol>
<symbol id="icon-home2" viewBox="0 0 32 32">
<path d="M16 1l-16 16 3 3 3-3v13h8v-6h4v6h8v-13l3 3 3-3-16-16zM16 14c-1.105 0-2-0.895-2-2s0.895-2 2-2c1.105 0 2 0.895 2 2s-0.895 2-2 2z"></path>
</symbol>
<symbol id="icon-home3" viewBox="0 0 32 32">
<path d="M32 19l-6-6v-9h-4v5l-6-6-16 16v1h4v10h10v-6h4v6h10v-10h4z"></path>
</symbol>
<symbol id="icon-instagram" viewBox="0 0 32 32">
<path d="M16 2.881c4.275 0 4.781 0.019 6.462 0.094 1.563 0.069 2.406 0.331 2.969 0.55 0.744 0.288 1.281 0.638 1.837 1.194 0.563 0.563 0.906 1.094 1.2 1.838 0.219 0.563 0.481 1.412 0.55 2.969 0.075 1.688 0.094 2.194 0.094 6.463s-0.019 4.781-0.094 6.463c-0.069 1.563-0.331 2.406-0.55 2.969-0.288 0.744-0.637 1.281-1.194 1.837-0.563 0.563-1.094 0.906-1.837 1.2-0.563 0.219-1.413 0.481-2.969 0.55-1.688 0.075-2.194 0.094-6.463 0.094s-4.781-0.019-6.463-0.094c-1.563-0.069-2.406-0.331-2.969-0.55-0.744-0.288-1.281-0.637-1.838-1.194-0.563-0.563-0.906-1.094-1.2-1.837-0.219-0.563-0.481-1.413-0.55-2.969-0.075-1.688-0.094-2.194-0.094-6.463s0.019-4.781 0.094-6.463c0.069-1.563 0.331-2.406 0.55-2.969 0.288-0.744 0.638-1.281 1.194-1.838 0.563-0.563 1.094-0.906 1.838-1.2 0.563-0.219 1.412-0.481 2.969-0.55 1.681-0.075 2.188-0.094 6.463-0.094zM16 0c-4.344 0-4.887 0.019-6.594 0.094-1.7 0.075-2.869 0.35-3.881 0.744-1.056 0.412-1.95 0.956-2.837 1.85-0.894 0.888-1.438 1.781-1.85 2.831-0.394 1.019-0.669 2.181-0.744 3.881-0.075 1.713-0.094 2.256-0.094 6.6s0.019 4.887 0.094 6.594c0.075 1.7 0.35 2.869 0.744 3.881 0.413 1.056 0.956 1.95 1.85 2.837 0.887 0.887 1.781 1.438 2.831 1.844 1.019 0.394 2.181 0.669 3.881 0.744 1.706 0.075 2.25 0.094 6.594 0.094s4.888-0.019 6.594-0.094c1.7-0.075 2.869-0.35 3.881-0.744 1.050-0.406 1.944-0.956 2.831-1.844s1.438-1.781 1.844-2.831c0.394-1.019 0.669-2.181 0.744-3.881 0.075-1.706 0.094-2.25 0.094-6.594s-0.019-4.887-0.094-6.594c-0.075-1.7-0.35-2.869-0.744-3.881-0.394-1.063-0.938-1.956-1.831-2.844-0.887-0.887-1.781-1.438-2.831-1.844-1.019-0.394-2.181-0.669-3.881-0.744-1.712-0.081-2.256-0.1-6.6-0.1v0z"></path>
<path d="M16 7.781c-4.537 0-8.219 3.681-8.219 8.219s3.681 8.219 8.219 8.219 8.219-3.681 8.219-8.219c0-4.537-3.681-8.219-8.219-8.219zM16 21.331c-2.944 0-5.331-2.387-5.331-5.331s2.387-5.331 5.331-5.331c2.944 0 5.331 2.387 5.331 5.331s-2.387 5.331-5.331 5.331z"></path>
<path d="M26.462 7.456c0 1.060-0.859 1.919-1.919 1.919s-1.919-0.859-1.919-1.919c0-1.060 0.859-1.919 1.919-1.919s1.919 0.859 1.919 1.919z"></path>
</symbol>
<symbol id="icon-key" viewBox="0 0 32 32">
<path d="M22 0c-5.523 0-10 4.477-10 10 0 0.626 0.058 1.238 0.168 1.832l-12.168 12.168v6c0 1.105 0.895 2 2 2h2v-2h4v-4h4v-4h4l2.595-2.595c1.063 0.385 2.209 0.595 3.405 0.595 5.523 0 10-4.477 10-10s-4.477-10-10-10zM24.996 10.004c-1.657 0-3-1.343-3-3s1.343-3 3-3 3 1.343 3 3-1.343 3-3 3z"></path>
</symbol>
<symbol id="icon-location-outline" viewBox="0 0 32 32">
<path stroke-width="2" stroke-miterlimit="4" stroke-linecap="round" stroke-linejoin="round" d="M16 3c-4.969 0-9 3.837-9 8.563 0 5.438 6 14.054 8.203 17.031 0.181 0.247 0.471 0.406 0.797 0.406s0.616-0.159 0.795-0.403l0.002-0.003c2.203-2.975 8.203-11.589 8.203-17.031 0-4.726-4.031-8.563-9-8.563z"></path>
<path stroke-width="2" stroke-miterlimit="4" stroke-linecap="round" stroke-linejoin="round" d="M19 12c0 1.657-1.343 3-3 3s-3-1.343-3-3c0-1.657 1.343-3 3-3s3 1.343 3 3z"></path>
</symbol>
<symbol id="icon-lock" viewBox="0 0 32 32">
<path d="M18.5 14h-0.5v-6c0-3.308-2.692-6-6-6h-4c-3.308 0-6 2.692-6 6v6h-0.5c-0.825 0-1.5 0.675-1.5 1.5v15c0 0.825 0.675 1.5 1.5 1.5h17c0.825 0 1.5-0.675 1.5-1.5v-15c0-0.825-0.675-1.5-1.5-1.5zM6 8c0-1.103 0.897-2 2-2h4c1.103 0 2 0.897 2 2v6h-8v-6z"></path>
</symbol>
<symbol id="icon-map-outline" viewBox="0 0 32 32">
<path stroke-width="2" stroke-miterlimit="4" stroke-linecap="round" stroke-linejoin="round" d="M19.579 7.79l-7.159-4.58c-0.26-0.133-0.568-0.211-0.894-0.211-0.343 0-0.665 0.086-0.947 0.238l0.011-0.005-7.059 4.736c-0.319 0.171-0.532 0.503-0.532 0.884 0 0 0 0 0 0v0 18.487c0 0 0 0 0 0 0 0.552 0.448 1 1 1 0.171 0 0.333-0.043 0.473-0.119l-0.005 0.003 6.114-3.987c0.271-0.147 0.594-0.233 0.936-0.233 0.331 0 0.643 0.080 0.919 0.223l-0.011-0.005 6.991 4.563c0.264 0.137 0.577 0.218 0.908 0.218 0.337 0 0.654-0.083 0.932-0.23l-0.011 0.005 7.214-4.746c0.323-0.17 0.539-0.504 0.539-0.887v0-18.483c0 0 0 0 0 0 0-0.552-0.448-1-1-1-0.171 0-0.332 0.043-0.473 0.119l0.005-0.003-6.125 3.991c-0.271 0.146-0.593 0.232-0.935 0.232-0.325 0-0.632-0.078-0.904-0.215l0.011 0.005z"></path>
<path stroke-width="2" stroke-miterlimit="4" stroke-linecap="round" stroke-linejoin="round" d="M20.5 8v21"></path>
<path stroke-width="2" stroke-miterlimit="4" stroke-linecap="round" stroke-linejoin="round" d="M11.5 3v21"></path>
</symbol>
<symbol id="icon-market" viewBox="0 0 26 32">
<path fill="#626262" style="fill: var(--color1, #626262)" d="M25.92 10.24q0 0.080 0.040 0.12t0 0.12v0.8q0 0.4-0.28 0.68t-0.68 0.28h-1.84v12.96q0 0.4-0.24 0.64t-0.68 0.28h-18.52q-0.4 0-0.68-0.28t-0.28-0.64v-12.96h-1.84q-0.4 0-0.64-0.28t-0.28-0.68v-0.8q0-0.16 0.040-0.24l2.36-8.68q0.2-0.64 0.68-1t1.12-0.36h17.56q0.64 0 1.12 0.36t0.64 1zM20.4 12.24h-14.84v5.080q0 0.2 0.16 0.32t0.32 0.16h13.88q0.2 0 0.36-0.16t0.12-0.32v-5.080z"></path>
</symbol>
<symbol id="icon-menu-outline" viewBox="0 0 32 32">
<path stroke-width="2" stroke-miterlimit="10" stroke-linecap="round" stroke-linejoin="miter" d="M5 10h22"></path>
<path stroke-width="2" stroke-miterlimit="10" stroke-linecap="round" stroke-linejoin="miter" d="M5 16h22"></path>
<path stroke-width="2" stroke-miterlimit="10" stroke-linecap="round" stroke-linejoin="miter" d="M5 22h22"></path>
</symbol>
<symbol id="icon-mic" viewBox="0 0 32 32">
<path d="M15 22c2.761 0 5-2.239 5-5v-12c0-2.761-2.239-5-5-5s-5 2.239-5 5v12c0 2.761 2.239 5 5 5zM22 14v3c0 3.866-3.134 7-7 7s-7-3.134-7-7v-3h-2v3c0 4.632 3.5 8.447 8 8.944v4.056h-4v2h10v-2h-4v-4.056c4.5-0.497 8-4.312 8-8.944v-3h-2z"></path>
</symbol>
<symbol id="icon-mobile2" viewBox="0 0 32 32">
<path d="M24 0h-18c-1.1 0-2 0.9-2 2v28c0 1.1 0.9 2 2 2h18c1.1 0 2-0.9 2-2v-28c0-1.1-0.9-2-2-2zM15 30.556c-0.859 0-1.556-0.697-1.556-1.556s0.697-1.556 1.556-1.556 1.556 0.697 1.556 1.556-0.697 1.556-1.556 1.556zM24 26h-18v-22h18v22z"></path>
</symbol>
<symbol id="icon-moon-outline" viewBox="0 0 32 32">
<path stroke-width="2" stroke-miterlimit="4" stroke-linecap="round" stroke-linejoin="round" d="M10 8.5c0-1.914 0.282-3.851 1-5.5-4.777 2.079-8 6.957-8 12.5 0 7.456 6.044 13.5 13.5 13.5 5.543 0 10.421-3.223 12.5-8-1.649 0.718-3.586 1-5.5 1-7.456 0-13.5-6.044-13.5-13.5z"></path>
</symbol>
<symbol id="icon-newspaper" viewBox="0 0 32 32">
<path d="M28 8v-4h-28v22c0 1.105 0.895 2 2 2h27c1.657 0 3-1.343 3-3v-17h-4zM26 26h-24v-20h24v20zM4 10h20v2h-20zM16 14h8v2h-8zM16 18h8v2h-8zM16 22h6v2h-6zM4 14h10v10h-10z"></path>
</symbol>
<symbol id="icon-nut" viewBox="0 0 32 32">
<path fill="#626262" style="fill: var(--color1, #626262)" d="M28 22c0 0.507-0.28 0.947-0.707 1.173l-10.533 5.92c-0.213 0.16-0.48 0.24-0.76 0.24s-0.547-0.080-0.76-0.24l-10.533-5.92c-0.423-0.226-0.707-0.665-0.707-1.17 0-0.001 0-0.003 0-0.004v0-12c0-0.507 0.28-0.947 0.707-1.173l10.533-5.92c0.213-0.16 0.48-0.24 0.76-0.24s0.547 0.080 0.76 0.24l10.533 5.92c0.427 0.227 0.707 0.667 0.707 1.173v12zM16 9.333c-3.682 0-6.667 2.985-6.667 6.667v0c0 3.682 2.985 6.667 6.667 6.667v0c3.682 0 6.667-2.985 6.667-6.667v0c0-3.682-2.985-6.667-6.667-6.667v0z"></path>
</symbol>
<symbol id="icon-pencil" viewBox="0 0 32 32">
<path d="M27 0c2.761 0 5 2.239 5 5 0 1.126-0.372 2.164-1 3l-2 2-7-7 2-2c0.836-0.628 1.874-1 3-1zM2 23l-2 9 9-2 18.5-18.5-7-7-18.5 18.5zM22.362 11.362l-14 14-1.724-1.724 14-14 1.724 1.724z"></path>
</symbol>
<symbol id="icon-price-tag" viewBox="0 0 32 32">
<path d="M30.5 0h-12c-0.825 0-1.977 0.477-2.561 1.061l-14.879 14.879c-0.583 0.583-0.583 1.538 0 2.121l12.879 12.879c0.583 0.583 1.538 0.583 2.121 0l14.879-14.879c0.583-0.583 1.061-1.736 1.061-2.561v-12c0-0.825-0.675-1.5-1.5-1.5zM23 12c-1.657 0-3-1.343-3-3s1.343-3 3-3 3 1.343 3 3-1.343 3-3 3z"></path>
</symbol>
<symbol id="icon-price-tags" viewBox="0 0 40 32">
<path d="M38.5 0h-12c-0.825 0-1.977 0.477-2.561 1.061l-14.879 14.879c-0.583 0.583-0.583 1.538 0 2.121l12.879 12.879c0.583 0.583 1.538 0.583 2.121 0l14.879-14.879c0.583-0.583 1.061-1.736 1.061-2.561v-12c0-0.825-0.675-1.5-1.5-1.5zM31 12c-1.657 0-3-1.343-3-3s1.343-3 3-3 3 1.343 3 3-1.343 3-3 3z"></path>
<path d="M4 17l17-17h-2.5c-0.825 0-1.977 0.477-2.561 1.061l-14.879 14.879c-0.583 0.583-0.583 1.538 0 2.121l12.879 12.879c0.583 0.583 1.538 0.583 2.121 0l0.939-0.939-13-13z"></path>
</symbol>
<symbol id="icon-profile" viewBox="0 0 32 32">
<path fill="#626262" style="fill: var(--color1, #626262)" d="M31.969 29.908q0 0.375-0.421 0.687t-1.296 0.515-1.795 0.375-2.357 0.265-2.498 0.14-2.732 0.078-2.529 0.031h-4.714l-2.529-0.031-2.732-0.078-2.498-0.14-2.357-0.265-1.795-0.375-1.296-0.515-0.421-0.687q0.062-2.747 3.434-4.855t8.554-2.794v-1.030q-1.623-0.718-2.81-2.029t-1.873-3.075-0.999-3.778-0.312-4.355q0-1.998 0.78-3.559t2.154-2.513 3.153-1.436 3.902-0.484 3.902 0.484 3.153 1.436 2.154 2.513 0.78 3.559q0 10.927-5.994 13.299v0.968q5.182 0.687 8.554 2.794t3.434 4.855z"></path>
</symbol>
<symbol id="icon-pushpin" viewBox="0 0 32 32">
<path d="M17 0l-3 3 3 3-7 8h-7l5.5 5.5-8.5 11.269v1.231h1.231l11.269-8.5 5.5 5.5v-7l8-7 3 3 3-3-15-15zM14 17l-2-2 7-7 2 2-7 7z"></path>
</symbol>
<symbol id="icon-stack" viewBox="0 0 32 32">
<path d="M32 10l-16-8-16 8 16 8 16-8zM16 4.655l10.689 5.345-10.689 5.345-10.689-5.345 10.689-5.345zM28.795 14.398l3.205 1.602-16 8-16-8 3.205-1.602 12.795 6.398zM28.795 20.398l3.205 1.602-16 8-16-8 3.205-1.602 12.795 6.398z"></path>
</symbol>
<symbol id="icon-star-full" viewBox="0 0 32 32">
<path d="M32 12.408l-11.056-1.607-4.944-10.018-4.944 10.018-11.056 1.607 8 7.798-1.889 11.011 9.889-5.199 9.889 5.199-1.889-11.011 8-7.798z"></path>
</symbol>
<symbol id="icon-sunny-outline" viewBox="0 0 32 32">
<path stroke-width="2" stroke-miterlimit="10" stroke-linecap="round" stroke-linejoin="miter" d="M16 3v3"></path>
<path stroke-width="2" stroke-miterlimit="10" stroke-linecap="round" stroke-linejoin="miter" d="M16 26v3"></path>
<path stroke-width="2" stroke-miterlimit="10" stroke-linecap="round" stroke-linejoin="miter" d="M25.192 6.808l-2.121 2.121"></path>
<path stroke-width="2" stroke-miterlimit="10" stroke-linecap="round" stroke-linejoin="miter" d="M8.929 23.071l-2.121 2.121"></path>
<path stroke-width="2" stroke-miterlimit="10" stroke-linecap="round" stroke-linejoin="miter" d="M29 16h-3"></path>
<path stroke-width="2" stroke-miterlimit="10" stroke-linecap="round" stroke-linejoin="miter" d="M6 16h-3"></path>
<path stroke-width="2" stroke-miterlimit="10" stroke-linecap="round" stroke-linejoin="miter" d="M25.192 25.192l-2.121-2.121"></path>
<path stroke-width="2" stroke-miterlimit="10" stroke-linecap="round" stroke-linejoin="miter" d="M8.929 8.929l-2.121-2.121"></path>
<path stroke-width="2" stroke-miterlimit="10" stroke-linecap="round" stroke-linejoin="miter" d="M21 16c0 2.761-2.239 5-5 5s-5-2.239-5-5c0-2.761 2.239-5 5-5s5 2.239 5 5z"></path>
</symbol>
<symbol id="icon-twitter" viewBox="0 0 32 32">
<path d="M32 7.075c-1.175 0.525-2.444 0.875-3.769 1.031 1.356-0.813 2.394-2.1 2.887-3.631-1.269 0.75-2.675 1.3-4.169 1.594-1.2-1.275-2.906-2.069-4.794-2.069-3.625 0-6.563 2.938-6.563 6.563 0 0.512 0.056 1.012 0.169 1.494-5.456-0.275-10.294-2.888-13.531-6.862-0.563 0.969-0.887 2.1-0.887 3.3 0 2.275 1.156 4.287 2.919 5.463-1.075-0.031-2.087-0.331-2.975-0.819 0 0.025 0 0.056 0 0.081 0 3.181 2.263 5.838 5.269 6.437-0.55 0.15-1.131 0.231-1.731 0.231-0.425 0-0.831-0.044-1.237-0.119 0.838 2.606 3.263 4.506 6.131 4.563-2.25 1.762-5.075 2.813-8.156 2.813-0.531 0-1.050-0.031-1.569-0.094 2.913 1.869 6.362 2.95 10.069 2.95 12.075 0 18.681-10.006 18.681-18.681 0-0.287-0.006-0.569-0.019-0.85 1.281-0.919 2.394-2.075 3.275-3.394z"></path>
</symbol>
<symbol id="icon-unlocked" viewBox="0 0 32 32">
<path d="M24 2c3.308 0 6 2.692 6 6v6h-4v-6c0-1.103-0.897-2-2-2h-4c-1.103 0-2 0.897-2 2v6h0.5c0.825 0 1.5 0.675 1.5 1.5v15c0 0.825-0.675 1.5-1.5 1.5h-17c-0.825 0-1.5-0.675-1.5-1.5v-15c0-0.825 0.675-1.5 1.5-1.5h12.5v-6c0-3.308 2.692-6 6-6h4z"></path>
</symbol>
<symbol id="icon-upload" viewBox="0 0 32 32">
<path d="M0 28h32v2h-32zM32 24v2h-32v-2l4-8h8v4h8v-4h8zM7 10l9-9 9 9h-7v8h-4v-8z"></path>
</symbol>
<symbol id="icon-video-camera" viewBox="0 0 32 32">
<path d="M12 9c0-2.761 2.239-5 5-5s5 2.239 5 5c0 2.761-2.239 5-5 5s-5-2.239-5-5zM0 9c0-2.761 2.239-5 5-5s5 2.239 5 5c0 2.761-2.239 5-5 5s-5-2.239-5-5zM24 19v-3c0-1.1-0.9-2-2-2h-20c-1.1 0-2 0.9-2 2v10c0 1.1 0.9 2 2 2h20c1.1 0 2-0.9 2-2v-3l8 5v-14l-8 5zM20 24h-16v-6h16v6z"></path>
</symbol>
<symbol id="icon-youtube" viewBox="0 0 32 32">
<path d="M31.681 9.6c0 0-0.313-2.206-1.275-3.175-1.219-1.275-2.581-1.281-3.206-1.356-4.475-0.325-11.194-0.325-11.194-0.325h-0.012c0 0-6.719 0-11.194 0.325-0.625 0.075-1.987 0.081-3.206 1.356-0.963 0.969-1.269 3.175-1.269 3.175s-0.319 2.588-0.319 5.181v2.425c0 2.587 0.319 5.181 0.319 5.181s0.313 2.206 1.269 3.175c1.219 1.275 2.819 1.231 3.531 1.369 2.563 0.244 10.881 0.319 10.881 0.319s6.725-0.012 11.2-0.331c0.625-0.075 1.988-0.081 3.206-1.356 0.962-0.969 1.275-3.175 1.275-3.175s0.319-2.587 0.319-5.181v-2.425c-0.006-2.588-0.325-5.181-0.325-5.181zM12.694 20.15v-8.994l8.644 4.513-8.644 4.481z"></path>
</symbol>
<symbol id="icon-menu" viewBox="0 0 32 32">
<path d="M2 6h28v6h-28zM2 14h28v6h-28zM2 22h28v6h-28z"></path>
</symbol>
</defs>
</svg>
