<!-- Generated by IcoMoon.io -->
<svg version="1.1" xmlns="http://www.w3.org/2000/svg" width="32" height="32" viewBox="0 0 32 32">
<title>bone</title>
<path d="M30.847 5.040c-0.741-0.741-1.763-1.143-2.798-1.152-0.013-1.009-0.412-1.996-1.153-2.737-1.535-1.535-4.033-1.535-5.568 0-1.307 1.307-1.5 3.312-0.582 4.827l-14.706 14.767c-1.485-0.898-3.543-0.759-4.886 0.583-1.535 1.535-1.535 4.033 0 5.568 0.741 0.741 1.764 1.143 2.799 1.153 0.009 1.035 0.411 2.058 1.153 2.799 1.535 1.535 4.033 1.535 5.568 0 1.457-1.457 1.512-3.778 0.29-5.305l14.581-14.642c1.54 1.23 3.857 1.152 5.302-0.293 1.535-1.535 1.535-4.033 0-5.568zM29.521 9.283c-0.803 0.803-2.17 0.809-2.979 0-0.107-0.107-0.16-0.18-0.24-0.286-0.34-0.447-0.985-0.498-1.39-0.115-0.018 0.017-15.944 16.004-16 16.071-0.351 0.415-0.274 1.051 0.173 1.368 1.057 0.751 1.155 2.31 0.263 3.202-0.804 0.804-2.113 0.804-2.917 0-0.573-0.573-0.763-1.508-0.462-2.274 0.297-0.762-0.46-1.511-1.215-1.215-0.766 0.301-1.701 0.11-2.274-0.462-1.272-1.272-0.421-3.521 1.49-3.521 0.571 0 1.1 0.215 1.49 0.604 0.361 0.361 0.954 0.372 1.327-0.001 16.996-17.068 15.946-15.974 16.052-16.2 0.172-0.37 0.081-0.792-0.186-1.059-0.804-0.804-0.804-2.113 0-2.917s2.113-0.804 2.917 0c0.58 0.58 0.762 1.448 0.462 2.212-0.082 0.208-0.088 0.46 0 0.685 0.188 0.48 0.736 0.718 1.215 0.53 0.766-0.301 1.701-0.11 2.274 0.462 0.804 0.804 0.804 2.113 0 2.917z"></path>
<path d="M10.35 11.572c0.366 0.366 0.96 0.366 1.326 0s0.366-0.96 0-1.326l-3.182-3.182c-0.366-0.366-0.96-0.366-1.326 0s-0.366 0.96 0 1.326z"></path>
<path d="M3.5 14.94h4.5c0.518 0 0.938-0.42 0.938-0.938s-0.42-0.938-0.938-0.938h-4.5c-0.518 0-0.938 0.42-0.938 0.938s0.42 0.938 0.938 0.938z"></path>
<path d="M14.107 8.833c0.518 0 0.938-0.42 0.938-0.938v-4.5c0-0.518-0.42-0.938-0.938-0.938s-0.938 0.42-0.938 0.938v4.5c0 0.518 0.42 0.938 0.938 0.938z"></path>
<path d="M21.756 20.433c-0.366-0.366-0.96-0.366-1.326 0s-0.366 0.96 0 1.326l3.182 3.182c0.183 0.183 0.423 0.275 0.663 0.275 0.828 0 1.255-1.008 0.663-1.6z"></path>
<path d="M28.606 17.065h-4.5c-0.518 0-0.938 0.42-0.938 0.938s0.42 0.938 0.938 0.938h4.5c0.518 0 0.938-0.42 0.938-0.938s-0.42-0.938-0.938-0.938z"></path>
<path d="M18 23.171c-0.518 0-0.938 0.42-0.938 0.938v4.5c0 0.518 0.42 0.938 0.938 0.938s0.938-0.42 0.938-0.938v-4.5c0-0.518-0.42-0.938-0.938-0.938z"></path>
</svg>
