<!-- Generated by IcoMoon.io -->
<svg version="1.1" xmlns="http://www.w3.org/2000/svg" width="32" height="32" viewBox="0 0 32 32">
<title>fish-bone</title>
<path d="M31.020 0.866c-1.085-1.018-3.238-0.945-4.853-0.705-2.218 0.33-4.712 1.175-7.025 2.378-0.36 0.187-0.558 0.584-0.492 0.984 0.315 1.91 1.337 3.926 2.888 5.603l-1.286 1.286-4.588-4.588c-0.366-0.366-0.96-0.366-1.326 0s-0.366 0.96 0 1.326l4.588 4.588-1.674 1.674-4.088-4.088c-0.366-0.366-0.96-0.366-1.326 0s-0.366 0.96 0 1.326l4.088 4.088-1.674 1.674-3.088-3.088c-0.366-0.366-0.96-0.366-1.326 0s-0.366 0.96 0 1.326l3.088 3.087-1.674 1.674-1.587-1.587c-0.366-0.366-0.96-0.366-1.326 0s-0.366 0.96 0 1.326l1.587 1.587-0.409 0.409c-0.953 0.211-4.451 0.711-8.395-0.078-0.578-0.116-1.121 0.327-1.121 0.919 0 2.912 1.297 5.438 4.128 5.873 0.436 2.832 2.964 4.128 5.873 4.128 0.591 0 1.036-0.541 0.919-1.122-0.789-3.944-0.289-7.443-0.078-8.395l0.409-0.409 1.587 1.587c0.183 0.183 0.423 0.275 0.663 0.275 0.828 0 1.255-1.008 0.663-1.601l-1.587-1.587 1.674-1.674 3.088 3.087c0.183 0.183 0.423 0.275 0.663 0.275 0.828 0 1.255-1.008 0.663-1.601l-3.088-3.087 1.674-1.674 4.088 4.088c0.183 0.183 0.423 0.275 0.663 0.275 0.828 0 1.255-1.008 0.663-1.601l-4.088-4.088 1.674-1.674 4.588 4.588c0.183 0.183 0.423 0.275 0.663 0.275 0.828 0 1.255-1.008 0.663-1.601l-4.588-4.588 1.332-1.332c1.648 1.32 3.689 2.267 5.993 2.515 0.413 0.044 0.808-0.189 0.967-0.575 0.933-2.266 1.619-4.542 1.932-6.409 0.423-2.521 0.167-4.18-0.783-5.071zM7.092 29.372c-0.777-0.531-1.154-1.31-1.154-2.382 0-0.518-0.42-0.938-0.938-0.938-1.072 0-1.852-0.377-2.382-1.154-0.318-0.466-0.542-1.078-0.655-1.781 2.249 0.328 4.656 0.346 6.867 0.044-0.301 2.202-0.284 4.61 0.044 6.867-0.703-0.114-1.315-0.337-1.781-0.656zM29.954 5.627c-0.26 1.549-0.803 3.419-1.546 5.327-3.957-0.74-6.945-4.027-7.763-7.070 1.945-0.939 3.981-1.597 5.799-1.867 2.090-0.311 3.069 0.006 3.294 0.217 0.328 0.308 0.557 1.361 0.217 3.393z"></path>
<path d="M25.422 4.804c-0.099-0.524-0.643-0.877-1.191-0.714-0.531 0.173-0.765 0.698-0.624 1.17 0.178 0.543 0.71 0.761 1.169 0.624 0.507-0.165 0.735-0.654 0.646-1.080z"></path>
</svg>
