<!-- Generated by IcoMoon.io -->
<svg version="1.1" xmlns="http://www.w3.org/2000/svg" width="32" height="32" viewBox="0 0 32 32">
<title>guide-dog</title>
<path fill="#626262" d="M12.742 7.988l3.762 3.762c0.011 0.011 0.021 0.022 0.033 0.033l0.030 0.030 0.003-0.003c0.112 0.091 0.253 0.148 0.409 0.148 0.36 0 0.651-0.292 0.651-0.651 0 0 0 0 0 0v0c0-0.235-0.125-0.438-0.311-0.553l-3.744-3.744c-0.119-0.137-0.293-0.223-0.487-0.223v0c-0.359 0-0.651 0.291-0.651 0.651v0c0 0.232 0.122 0.435 0.305 0.549z"></path>
<path fill="#626262" d="M16.979 21.033v-8.012h-8.608c-0.047 0-0.093 0.012-0.138 0.029l-3.509-2.026-0.003 0.005c-0.109-0.059-0.238-0.094-0.376-0.095v0c-0.001 0-0.002 0-0.003 0-0.454 0-0.822 0.368-0.822 0.822 0 0.29 0.15 0.545 0.377 0.691l0.003 0.002-0.006 0.011 3.556 2.053c-0.137 0.598-0.219 1.332-0.219 2.128 0 1.684 0.363 3.094 0.852 3.5l-2.004 3.472c-0.149 0.187-0.239 0.426-0.24 0.687v0c0 0.621 0.503 1.124 1.124 1.124v0c0.361-0.001 0.682-0.173 0.886-0.44l0.002-0.003 0.019 0.011 2.345-4.061 2.345 4.061 0.019-0.011c0.206 0.269 0.526 0.441 0.888 0.442v0c0.621 0 1.124-0.503 1.124-1.124v0c0-0.26-0.092-0.496-0.24-0.687l-1.514-2.622c0.789 0.045 1.647 0.070 2.544 0.070 0.551 0 1.086-0.010 1.6-0.028z"></path>
<path fill="#626262" d="M22.619 20.202c0.368-0.208 0.676-0.976 0.831-2.018l-5.191-5.191v7.26l-1.94 3.361c-0.149 0.187-0.239 0.426-0.24 0.687v0c0 0.621 0.503 1.124 1.124 1.124v0c0.361-0.001 0.682-0.173 0.886-0.44l0.002-0.003 0.019 0.011 2.345-4.061 2.345 4.061 0.019-0.011c0.206 0.269 0.526 0.441 0.888 0.442v0c0.621 0 1.124-0.503 1.124-1.124v0c0-0.26-0.092-0.496-0.24-0.687l-1.97-3.411z"></path>
<path fill="#626262" d="M28.479 13.336c0-0.266-0.131-0.499-0.33-0.645l-1.25-1.25v-1.301c0-0.489-0.281-0.908-0.688-1.117l-1.617-0.934-0.004 0.008c-0.129-0.078-0.281-0.135-0.443-0.16l-0.007-0.001-0.785-1.36-1.631 2.826-2.622 2.621 4.454 4.454c-0.004-0.35-0.024-0.69-0.058-1.026l0.004 0.047 0.879-0.879h3.16v-0.009l0.696-0.696-0.003-0.003c0.152-0.145 0.247-0.35 0.247-0.577v0z"></path>
</svg>
