<!-- Generated by IcoMoon.io -->
<svg version="1.1" xmlns="http://www.w3.org/2000/svg" width="26" height="32" viewBox="0 0 26 32">
<title>market</title>
<path fill="#626262" d="M25.92 10.24q0 0.080 0.040 0.12t0 0.12v0.8q0 0.4-0.28 0.68t-0.68 0.28h-1.84v12.96q0 0.4-0.24 0.64t-0.68 0.28h-18.52q-0.4 0-0.68-0.28t-0.28-0.64v-12.96h-1.84q-0.4 0-0.64-0.28t-0.28-0.68v-0.8q0-0.16 0.040-0.24l2.36-8.68q0.2-0.64 0.68-1t1.12-0.36h17.56q0.64 0 1.12 0.36t0.64 1zM20.4 12.24h-14.84v5.080q0 0.2 0.16 0.32t0.32 0.16h13.88q0.2 0 0.36-0.16t0.12-0.32v-5.080z"></path>
</svg>
