<!-- Generated by IcoMoon.io -->
<svg version="1.1" xmlns="http://www.w3.org/2000/svg" width="32" height="32" viewBox="0 0 32 32">
<title>profile</title>
<path fill="#626262" d="M31.969 29.908q0 0.375-0.421 0.687t-1.296 0.515-1.795 0.375-2.357 0.265-2.498 0.14-2.732 0.078-2.529 0.031h-4.714l-2.529-0.031-2.732-0.078-2.498-0.14-2.357-0.265-1.795-0.375-1.296-0.515-0.421-0.687q0.062-2.747 3.434-4.855t8.554-2.794v-1.030q-1.623-0.718-2.81-2.029t-1.873-3.075-0.999-3.778-0.312-4.355q0-1.998 0.78-3.559t2.154-2.513 3.153-1.436 3.902-0.484 3.902 0.484 3.153 1.436 2.154 2.513 0.78 3.559q0 10.927-5.994 13.299v0.968q5.182 0.687 8.554 2.794t3.434 4.855z"></path>
</svg>
